<?xml version="1.0" encoding="UTF-8" standalone="no"?><svg xmlns="http://www.w3.org/2000/svg" xmlns:xlink="http://www.w3.org/1999/xlink" clip-rule="evenodd" stroke-miterlimit="10" viewBox="0 0 1024 768"><desc>SVG generated by Keynote</desc><defs></defs><g transform="matrix(1.00, 0.00, -0.00, -1.00, 0.0, 768.0)"><path d="M 0.0 768.0 L 1024.0 768.0 L 1024.0 0.0 L 0.0 0.0 Z M 0.0 768.0 " fill="#5F5F5F"></path><text xml:space="preserve" font-family="FranklinGothic-Medium,Franklin Gothic Medium" font-size="102.0" fill="#7AC2E5" transform="matrix(1.00, 0.00, -0.00, -1.00, 118.4, 405.2)">P</text><text xml:space="preserve" font-family="FranklinGothic-Medium,Franklin Gothic Medium" font-size="102.0" fill="#7AC2E5" transform="matrix(1.00, 0.00, -0.00, -1.00, 179.5, 405.2)">y</text><text xml:space="preserve" font-family="FranklinGothic-Medium,Franklin Gothic Medium" font-size="102.0" fill="#7AC2E5" transform="matrix(1.00, 0.00, -0.00, -1.00, 224.6, 405.2)">t</text><text xml:space="preserve" font-family="FranklinGothic-Medium,Franklin Gothic Medium" font-size="102.0" fill="#7AC2E5" transform="matrix(1.00, 0.00, -0.00, -1.00, 257.5, 405.2)">h</text><text xml:space="preserve" font-family="FranklinGothic-Medium,Franklin Gothic Medium" font-size="102.0" fill="#7AC2E5" transform="matrix(1.00, 0.00, -0.00, -1.00, 312.8, 405.2)">o</text><text xml:space="preserve" font-family="FranklinGothic-Medium,Franklin Gothic Medium" font-size="102.0" fill="#7AC2E5" transform="matrix(1.00, 0.00, -0.00, -1.00, 366.7, 405.2)">n</text><text xml:space="preserve" font-family="FranklinGothic-Medium,Franklin Gothic Medium" font-size="102.0" fill="#7AC2E5" transform="matrix(1.00, 0.00, -0.00, -1.00, 421.9, 405.2)"> </text><text xml:space="preserve" font-family="FranklinGothic-Medium,Franklin Gothic Medium" font-size="102.0" fill="#7AC2E5" transform="matrix(1.00, 0.00, -0.00, -1.00, 447.4, 405.2)">D</text><text xml:space="preserve" font-family="FranklinGothic-Medium,Franklin Gothic Medium" font-size="102.0" fill="#7AC2E5" transform="matrix(1.00, 0.00, -0.00, -1.00, 514.2, 405.2)">a</text><text xml:space="preserve" font-family="FranklinGothic-Medium,Franklin Gothic Medium" font-size="102.0" fill="#7AC2E5" transform="matrix(1.00, 0.00, -0.00, -1.00, 569.2, 405.2)">t</text><text xml:space="preserve" font-family="FranklinGothic-Medium,Franklin Gothic Medium" font-size="102.0" fill="#7AC2E5" transform="matrix(1.00, 0.00, -0.00, -1.00, 602.1, 405.2)">a</text><text xml:space="preserve" font-family="FranklinGothic-Medium,Franklin Gothic Medium" font-size="102.0" fill="#7AC2E5" transform="matrix(1.00, 0.00, -0.00, -1.00, 657.2, 405.2)"> </text><text xml:space="preserve" font-family="FranklinGothic-Medium,Franklin Gothic Medium" font-size="102.0" fill="#7AC2E5" transform="matrix(1.00, 0.00, -0.00, -1.00, 682.7, 405.2)">T</text><text xml:space="preserve" font-family="FranklinGothic-Medium,Franklin Gothic Medium" font-size="102.0" fill="#7AC2E5" transform="matrix(1.00, 0.00, -0.00, -1.00, 726.3, 405.2)">o</text><text xml:space="preserve" font-family="FranklinGothic-Medium,Franklin Gothic Medium" font-size="102.0" fill="#7AC2E5" transform="matrix(1.00, 0.00, -0.00, -1.00, 780.3, 405.2)">o</text><text xml:space="preserve" font-family="FranklinGothic-Medium,Franklin Gothic Medium" font-size="102.0" fill="#7AC2E5" transform="matrix(1.00, 0.00, -0.00, -1.00, 834.2, 405.2)">l</text><text xml:space="preserve" font-family="FranklinGothic-Medium,Franklin Gothic Medium" font-size="102.0" fill="#7AC2E5" transform="matrix(1.00, 0.00, -0.00, -1.00, 859.1, 405.2)">s</text><text xml:space="preserve" font-family="Helvetica,Helvetica" font-size="75.0" fill="#FEFFFE" transform="matrix(1.00, 0.00, -0.00, -1.00, 255.6, 295.2)">M</text><text xml:space="preserve" font-family="Helvetica,Helvetica" font-size="75.0" fill="#FEFFFE" transform="matrix(1.00, 0.00, -0.00, -1.00, 318.1, 295.2)">o</text><text xml:space="preserve" font-family="Helvetica,Helvetica" font-size="75.0" fill="#FEFFFE" transform="matrix(1.00, 0.00, -0.00, -1.00, 359.8, 295.2)">n</text><text xml:space="preserve" font-family="Helvetica,Helvetica" font-size="75.0" fill="#FEFFFE" transform="matrix(1.00, 0.00, -0.00, -1.00, 401.5, 295.2)">t</text><text xml:space="preserve" font-family="Helvetica,Helvetica" font-size="75.0" fill="#FEFFFE" transform="matrix(1.00, 0.00, -0.00, -1.00, 422.3, 295.2)">e</text><text xml:space="preserve" font-family="Helvetica,Helvetica" font-size="75.0" fill="#FEFFFE" transform="matrix(1.00, 0.00, -0.00, -1.00, 464.1, 295.2)"> </text><text xml:space="preserve" font-family="Helvetica,Helvetica" font-size="75.0" fill="#FEFFFE" transform="matrix(1.00, 0.00, -0.00, -1.00, 484.9, 295.2)">L</text><text xml:space="preserve" font-family="Helvetica,Helvetica" font-size="75.0" fill="#FEFFFE" transform="matrix(1.00, 0.00, -0.00, -1.00, 526.6, 295.2)">u</text><text xml:space="preserve" font-family="Helvetica,Helvetica" font-size="75.0" fill="#FEFFFE" transform="matrix(1.00, 0.00, -0.00, -1.00, 568.3, 295.2)">n</text><text xml:space="preserve" font-family="Helvetica,Helvetica" font-size="75.0" fill="#FEFFFE" transform="matrix(1.00, 0.00, -0.00, -1.00, 610.1, 295.2)">a</text><text xml:space="preserve" font-family="Helvetica,Helvetica" font-size="75.0" fill="#FEFFFE" transform="matrix(1.00, 0.00, -0.00, -1.00, 651.8, 295.2)">c</text><text xml:space="preserve" font-family="Helvetica,Helvetica" font-size="75.0" fill="#FEFFFE" transform="matrix(1.00, 0.00, -0.00, -1.00, 689.3, 295.2)">e</text><text xml:space="preserve" font-family="Helvetica,Helvetica" font-size="75.0" fill="#FEFFFE" transform="matrix(1.00, 0.00, -0.00, -1.00, 731.0, 295.2)">k</text><text xml:space="preserve" font-family="Helvetica-Light,Helvetica" font-size="53.2" fill="#FEFFFE" transform="matrix(1.00, 0.00, -0.00, -1.00, 443.9, 226.2)">N</text><text xml:space="preserve" font-family="Helvetica-Light,Helvetica" font-size="53.2" fill="#FEFFFE" transform="matrix(1.00, 0.00, -0.00, -1.00, 482.4, 226.2)">R</text><text xml:space="preserve" font-family="Helvetica-Light,Helvetica" font-size="53.2" fill="#FEFFFE" transform="matrix(1.00, 0.00, -0.00, -1.00, 517.9, 226.2)">E</text><text xml:space="preserve" font-family="Helvetica-Light,Helvetica" font-size="53.2" fill="#FEFFFE" transform="matrix(1.00, 0.00, -0.00, -1.00, 550.4, 226.2)">L</text></g></svg>