<?xml version="1.0" encoding="UTF-8" standalone="no"?><svg xmlns="http://www.w3.org/2000/svg" xmlns:xlink="http://www.w3.org/1999/xlink" clip-rule="evenodd" stroke-miterlimit="10" viewBox="0 0 1024 768"><desc>SVG generated by Keynote</desc><defs></defs><g transform="matrix(1.00, 0.00, -0.00, -1.00, 0.0, 768.0)"><path d="M 0.0 768.0 L 1024.0 768.0 L 1024.0 0.0 L 0.0 0.0 Z M 0.0 768.0 " fill="#606060"></path><text xml:space="preserve" font-family="Helvetica-Bold,Helvetica" font-weight="bold" font-size="100.0" fill="#65A1BE" transform="matrix(1.00, 0.00, -0.00, -1.00, 248.1, 346.7)">N</text><text xml:space="preserve" font-family="Helvetica-Bold,Helvetica" font-weight="bold" font-size="100.0" fill="#65A1BE" transform="matrix(1.00, 0.00, -0.00, -1.00, 320.4, 346.7)">o</text><text xml:space="preserve" font-family="Helvetica-Bold,Helvetica" font-weight="bold" font-size="100.0" fill="#65A1BE" transform="matrix(1.00, 0.00, -0.00, -1.00, 381.4, 346.7)">w</text><text xml:space="preserve" font-family="Helvetica-Bold,Helvetica" font-weight="bold" font-size="100.0" fill="#65A1BE" transform="matrix(1.00, 0.00, -0.00, -1.00, 459.2, 346.7)"> </text><text xml:space="preserve" font-family="Helvetica-Bold,Helvetica" font-weight="bold" font-size="100.0" fill="#65A1BE" transform="matrix(1.00, 0.00, -0.00, -1.00, 487.0, 346.7)">w</text><text xml:space="preserve" font-family="Helvetica-Bold,Helvetica" font-weight="bold" font-size="100.0" fill="#65A1BE" transform="matrix(1.00, 0.00, -0.00, -1.00, 564.7, 346.7)">h</text><text xml:space="preserve" font-family="Helvetica-Bold,Helvetica" font-weight="bold" font-size="100.0" fill="#65A1BE" transform="matrix(1.00, 0.00, -0.00, -1.00, 625.8, 346.7)">a</text><text xml:space="preserve" font-family="Helvetica-Bold,Helvetica" font-weight="bold" font-size="100.0" fill="#65A1BE" transform="matrix(1.00, 0.00, -0.00, -1.00, 681.4, 346.7)">t</text><text xml:space="preserve" font-family="Helvetica-Bold,Helvetica" font-weight="bold" font-size="100.0" fill="#65A1BE" transform="matrix(1.00, 0.00, -0.00, -1.00, 714.7, 346.7)">?</text></g></svg>