<?xml version="1.0" encoding="UTF-8" standalone="no"?><svg xmlns="http://www.w3.org/2000/svg" xmlns:xlink="http://www.w3.org/1999/xlink" clip-rule="evenodd" stroke-miterlimit="10" viewBox="0 0 1024 768"><desc>SVG generated by Keynote</desc><defs></defs><g transform="matrix(1.00, 0.00, -0.00, -1.00, 0.0, 768.0)"><path d="M 0.0 768.0 L 1024.0 768.0 L 1024.0 0.0 L 0.0 0.0 Z M 0.0 768.0 " fill="#FEFFFF"></path><text xml:space="preserve" font-family="Helvetica-Light,Helvetica" font-size="36.0" fill="#000000" transform="matrix(1.00, 0.00, -0.00, -1.00, 490.9, 444.2)">C</text><text xml:space="preserve" font-family="Helvetica-Light,Helvetica" font-size="36.0" fill="#000000" transform="matrix(1.00, 0.00, -0.00, -1.00, 516.8, 444.2)">S</text><text xml:space="preserve" font-family="Helvetica-Light,Helvetica" font-size="36.0" fill="#000000" transform="matrix(1.00, 0.00, -0.00, -1.00, 538.8, 444.2)">V</text><text xml:space="preserve" font-family="Helvetica-Light,Helvetica" font-size="36.0" fill="#000000" transform="matrix(1.00, 0.00, -0.00, -1.00, 733.0, 444.2)">H</text><text xml:space="preserve" font-family="Helvetica-Light,Helvetica" font-size="36.0" fill="#000000" transform="matrix(1.00, 0.00, -0.00, -1.00, 759.0, 444.2)">D</text><text xml:space="preserve" font-family="Helvetica-Light,Helvetica" font-size="36.0" fill="#000000" transform="matrix(1.00, 0.00, -0.00, -1.00, 785.0, 444.2)">F</text><text xml:space="preserve" font-family="Helvetica-Light,Helvetica" font-size="36.0" fill="#000000" transform="matrix(1.00, 0.00, -0.00, -1.00, 805.0, 444.2)">5</text><text xml:space="preserve" font-family="Helvetica-Light,Helvetica" font-size="36.0" fill="#000000" transform="matrix(1.00, 0.00, -0.00, -1.00, 250.2, 444.2)">J</text><text xml:space="preserve" font-family="Helvetica-Light,Helvetica" font-size="36.0" fill="#000000" transform="matrix(1.00, 0.00, -0.00, -1.00, 268.2, 444.2)">S</text><text xml:space="preserve" font-family="Helvetica-Light,Helvetica" font-size="36.0" fill="#000000" transform="matrix(1.00, 0.00, -0.00, -1.00, 290.2, 444.2)">O</text><text xml:space="preserve" font-family="Helvetica-Light,Helvetica" font-size="36.0" fill="#000000" transform="matrix(1.00, 0.00, -0.00, -1.00, 318.2, 444.2)">N</text><path d="M 240.0 175.0 L 346.0 175.0 L 346.0 133.0 L 240.0 133.0 Z M 240.1 175.2 " fill="#DCDDE0"></path><g><clipPath id="clip0x608000eaf0c0"><path d="M 237.1 130.2 L 348.6 130.2 L 348.6 178.2 L 237.1 178.2 Z M 237.1 130.2 "></path></clipPath><g clip-path="url(#clip0x608000eaf0c0)"><text xml:space="preserve" font-family="Helvetica-Bold,Helvetica" font-weight="bold" font-size="28.0" fill="#52575F" transform="matrix(1.00, 0.00, -0.00, -1.00, 244.6, 143.7)">c</text><text xml:space="preserve" font-family="Helvetica-Bold,Helvetica" font-weight="bold" font-size="28.0" fill="#52575F" transform="matrix(1.00, 0.00, -0.00, -1.00, 260.2, 143.7)">y</text><text xml:space="preserve" font-family="Helvetica-Bold,Helvetica" font-weight="bold" font-size="28.0" fill="#52575F" transform="matrix(1.00, 0.00, -0.00, -1.00, 275.8, 143.7)">t</text><text xml:space="preserve" font-family="Helvetica-Bold,Helvetica" font-weight="bold" font-size="28.0" fill="#52575F" transform="matrix(1.00, 0.00, -0.00, -1.00, 285.1, 143.7)">o</text><text xml:space="preserve" font-family="Helvetica-Bold,Helvetica" font-weight="bold" font-size="28.0" fill="#52575F" transform="matrix(1.00, 0.00, -0.00, -1.00, 302.2, 143.7)">o</text><text xml:space="preserve" font-family="Helvetica-Bold,Helvetica" font-weight="bold" font-size="28.0" fill="#52575F" transform="matrix(1.00, 0.00, -0.00, -1.00, 319.3, 143.7)">l</text><text xml:space="preserve" font-family="Helvetica-Bold,Helvetica" font-weight="bold" font-size="28.0" fill="#52575F" transform="matrix(1.00, 0.00, -0.00, -1.00, 327.1, 143.7)">z</text></g></g><image xlink:href="../../0099E750-43F4-4A1E-80C1-2076B752852F/assets/1830BD4DC190320E5F65BD3EA6D6B03D.png" width="644.00" height="222.00" transform="matrix(0.21, 0.00, -0.00, -0.21, 225.6, 269.1)"></image><text xml:space="preserve" font-family="Helvetica-Light,Helvetica" font-size="36.0" fill="#000000" transform="matrix(1.00, 0.00, -0.00, -1.00, 281.0, 194.4)">+</text><image xlink:href="../../0099E750-43F4-4A1E-80C1-2076B752852F/assets/AC06D62246FABD4604C71234B358398C.png" width="912.00" height="194.00" transform="matrix(0.24, 0.00, -0.00, -0.24, 433.2, 269.1)"></image><image xlink:href="../../0099E750-43F4-4A1E-80C1-2076B752852F/assets/762503EC7071EE1746AEB4FA658E29CD.png" width="566.00" height="194.00" transform="matrix(0.26, 0.00, -0.00, -0.26, 724.1, 263.1)"></image><image xlink:href="../../0099E750-43F4-4A1E-80C1-2076B752852F/assets/951C6995AD21FE1AB2981AB39399DF71.png" width="664.00" height="304.00" transform="matrix(0.20, 0.00, -0.00, -0.20, 741.0, 184.6)"></image><path d="M -0.2 0.2 L 99.5 0.2 L 101.8 0.2 " fill="none" stroke="#000000" stroke-width="4.00" transform="matrix(0.00, -1.00, -1.00, 0.00, 297.2, 418.8)"></path><path d="M 288.6 319.0 L 297.0 302.2 L 305.4 319.0 Z M 288.6 319.0 " fill="#000000"></path><path d="M -0.0 -0.4 L 115.7 -0.4 L 118.0 -0.4 " fill="none" stroke="#000000" stroke-width="4.00" transform="matrix(0.00, -1.00, -1.00, 0.00, 531.6, 425.0)"></path><path d="M 523.6 309.0 L 532.0 292.2 L 540.4 309.0 Z M 523.6 309.0 " fill="#000000"></path><path d="M 0.0 0.0 L 221.3 0.0 L 223.3 0.0 " fill="none" stroke="#000000" stroke-width="4.00" stroke-dasharray="4.0, 4.0" transform="matrix(0.84, -0.54, -0.54, -0.84, 295.8, 422.1)"></path><path d="M 477.7 295.7 L 496.3 293.7 L 486.7 309.8 Z M 477.7 295.7 " fill="#000000"></path><image xlink:href="../../0099E750-43F4-4A1E-80C1-2076B752852F/assets/C659AD5BF6660713E26655DDC23FED0B.png" width="431.00" height="117.00" transform="matrix(0.43, 0.00, -0.00, -0.43, 199.9, 644.1)"></image><text xml:space="preserve" font-family="Helvetica-Light,Helvetica" font-size="68.0" fill="#000000" transform="matrix(1.00, 0.00, -0.00, -1.00, 325.6, 676.4)">M</text><text xml:space="preserve" font-family="Helvetica-Light,Helvetica" font-size="68.0" fill="#000000" transform="matrix(1.00, 0.00, -0.00, -1.00, 382.2, 676.4)">e</text><text xml:space="preserve" font-family="Helvetica-Light,Helvetica" font-size="68.0" fill="#000000" transform="matrix(1.00, 0.00, -0.00, -1.00, 420.0, 676.4)">d</text><text xml:space="preserve" font-family="Helvetica-Light,Helvetica" font-size="68.0" fill="#000000" transform="matrix(1.00, 0.00, -0.00, -1.00, 461.6, 676.4)">i</text><text xml:space="preserve" font-family="Helvetica-Light,Helvetica" font-size="68.0" fill="#000000" transform="matrix(1.00, 0.00, -0.00, -1.00, 476.7, 676.4)">u</text><text xml:space="preserve" font-family="Helvetica-Light,Helvetica" font-size="68.0" fill="#000000" transform="matrix(1.00, 0.00, -0.00, -1.00, 514.5, 676.4)">m</text><text xml:space="preserve" font-family="Helvetica-Light,Helvetica" font-size="68.0" fill="#000000" transform="matrix(1.00, 0.00, -0.00, -1.00, 571.1, 676.4)"> </text><text xml:space="preserve" font-family="Helvetica-Light,Helvetica" font-size="68.0" fill="#000000" transform="matrix(1.00, 0.00, -0.00, -1.00, 590.0, 676.4)">d</text><text xml:space="preserve" font-family="Helvetica-Light,Helvetica" font-size="68.0" fill="#000000" transform="matrix(1.00, 0.00, -0.00, -1.00, 631.6, 676.4)">a</text><text xml:space="preserve" font-family="Helvetica-Light,Helvetica" font-size="68.0" fill="#000000" transform="matrix(1.00, 0.00, -0.00, -1.00, 669.4, 676.4)">t</text><text xml:space="preserve" font-family="Helvetica-Light,Helvetica" font-size="68.0" fill="#000000" transform="matrix(1.00, 0.00, -0.00, -1.00, 688.3, 676.4)">a</text><image xlink:href="../../0099E750-43F4-4A1E-80C1-2076B752852F/assets/E9E6297C32067658EA5BA0E3F6A2F487.png" width="240.00" height="50.00" transform="matrix(0.84, 0.00, -0.00, -0.84, 441.3, 628.8)"></image><path d="M 0.2 -0.2 L 73.1 -0.2 L 75.2 -0.2 " fill="none" stroke="#000000" stroke-width="4.00" transform="matrix(0.00, -1.00, -1.00, 0.00, 292.8, 574.2)"></path><path d="M 284.6 501.0 L 293.0 484.2 L 301.4 501.0 Z M 284.6 501.0 " fill="#000000"></path><path d="M 0.2 -0.2 L 73.1 -0.2 L 75.2 -0.2 " fill="none" stroke="#000000" stroke-width="4.00" transform="matrix(0.00, -1.00, -1.00, 0.00, 525.8, 574.2)"></path><path d="M 517.6 501.0 L 526.0 484.2 L 534.4 501.0 Z M 517.6 501.0 " fill="#000000"></path><path d="M -0.3 -0.3 L 107.2 -0.3 L 109.7 -0.3 " fill="none" stroke="#000000" stroke-width="4.00" transform="matrix(0.00, -1.00, -1.00, 0.00, 787.7, 422.7)"></path><path d="M 779.6 315.0 L 788.0 298.2 L 796.4 315.0 Z M 779.6 315.0 " fill="#000000"></path><path d="M 0.1 0.2 L 257.9 0.2 L 260.1 0.2 " fill="none" stroke="#000000" stroke-width="4.00" transform="matrix(0.00, -1.00, -1.00, 0.00, 575.2, 565.1)"></path><path d="M 566.6 307.0 L 575.0 290.2 L 583.4 307.0 Z M 566.6 307.0 " fill="#000000"></path><path d="M 0.0 0.0 L 209.5 0.0 L 211.5 0.0 " fill="none" stroke="#000000" stroke-width="4.00" stroke-dasharray="4.0, 4.0" transform="matrix(-0.82, -0.58, -0.58, 0.82, 786.0, 422.1)"></path><path d="M 610.2 307.8 L 601.4 291.2 L 620.0 294.1 Z M 610.2 307.8 " fill="#000000"></path><path d="M 667.0 386.0 L 722.0 386.0 L 722.0 335.0 L 667.0 335.0 Z M 666.8 386.2 " fill="#FEFFFE"></path><g><clipPath id="clip0x608000cb1640"><path d="M 661.8 330.2 L 726.8 330.2 L 726.8 391.2 L 661.8 391.2 Z M 661.8 330.2 "></path></clipPath><g clip-path="url(#clip0x608000cb1640)"><text xml:space="preserve" font-family="Helvetica-Light,Helvetica" font-size="36.0" fill="#000000" transform="matrix(1.00, 0.00, -0.00, -1.00, 671.3, 347.5)">2</text><text xml:space="preserve" font-family="Helvetica-Light,Helvetica" font-size="36.0" fill="#000000" transform="matrix(1.00, 0.00, -0.00, -1.00, 691.3, 347.5)">D</text></g></g><path d="M 365.0 386.0 L 422.0 386.0 L 422.0 335.0 L 365.0 335.0 Z M 364.9 386.2 " fill="#FEFFFE"></path><g><clipPath id="clip0x608000eaf300"><path d="M 359.9 330.2 L 427.0 330.2 L 427.0 391.2 L 359.9 391.2 Z M 359.9 330.2 "></path></clipPath><g clip-path="url(#clip0x608000eaf300)"><text xml:space="preserve" font-family="Helvetica-Light,Helvetica" font-size="36.0" fill="#000000" transform="matrix(1.00, 0.00, -0.00, -1.00, 369.4, 347.5)">ﬂ</text><text xml:space="preserve" font-family="Helvetica-Light,Helvetica" font-size="36.0" fill="#000000" transform="matrix(1.00, 0.00, -0.00, -1.00, 387.4, 347.5)">a</text><text xml:space="preserve" font-family="Helvetica-Light,Helvetica" font-size="36.0" fill="#000000" transform="matrix(1.00, 0.00, -0.00, -1.00, 407.4, 347.5)">t</text></g></g><path d="M 250.4 22.3 C 307.7 52.0 307.7 100.2 250.4 129.9 C 193.1 159.6 100.3 159.6 43.0 129.9 C -14.3 100.2 -14.3 52.0 43.0 22.3 C 100.3 -7.4 193.1 -7.4 250.4 22.3 Z M 250.4 22.3 " fill="none" stroke="#85878C" stroke-width="2.00" transform="matrix(1.00, 0.00, 0.00, -1.00, 395.4, 326.9)"></path><text xml:space="preserve" font-family="Helvetica-Bold,Helvetica" font-weight="bold" font-size="36.0" fill="#000000" transform="matrix(1.00, 0.00, -0.00, -1.00, 227.3, 57.0)">p</text><text xml:space="preserve" font-family="Helvetica-Bold,Helvetica" font-weight="bold" font-size="36.0" fill="#000000" transform="matrix(1.00, 0.00, -0.00, -1.00, 249.3, 57.0)">a</text><text xml:space="preserve" font-family="Helvetica-Bold,Helvetica" font-weight="bold" font-size="36.0" fill="#000000" transform="matrix(1.00, 0.00, -0.00, -1.00, 269.3, 57.0)">n</text><text xml:space="preserve" font-family="Helvetica-Bold,Helvetica" font-weight="bold" font-size="36.0" fill="#000000" transform="matrix(1.00, 0.00, -0.00, -1.00, 291.3, 57.0)">d</text><text xml:space="preserve" font-family="Helvetica-Bold,Helvetica" font-weight="bold" font-size="36.0" fill="#000000" transform="matrix(1.00, 0.00, -0.00, -1.00, 313.3, 57.0)">a</text><text xml:space="preserve" font-family="Helvetica-Bold,Helvetica" font-weight="bold" font-size="36.0" fill="#000000" transform="matrix(1.00, 0.00, -0.00, -1.00, 333.3, 57.0)">s</text><text xml:space="preserve" font-family="Helvetica-Light,Helvetica" font-size="36.0" fill="#000000" transform="matrix(1.00, 0.00, -0.00, -1.00, 353.4, 57.0)"> </text><text xml:space="preserve" font-family="Helvetica-Light,Helvetica" font-size="36.0" fill="#000000" transform="matrix(1.00, 0.00, -0.00, -1.00, 363.4, 57.0)">i</text><text xml:space="preserve" font-family="Helvetica-Light,Helvetica" font-size="36.0" fill="#000000" transform="matrix(1.00, 0.00, -0.00, -1.00, 371.4, 57.0)">s</text><text xml:space="preserve" font-family="Helvetica-Light,Helvetica" font-size="36.0" fill="#000000" transform="matrix(1.00, 0.00, -0.00, -1.00, 389.4, 57.0)"> </text><text xml:space="preserve" font-family="Helvetica-Light,Helvetica" font-size="36.0" fill="#000000" transform="matrix(1.00, 0.00, -0.00, -1.00, 399.4, 57.0)">a</text><text xml:space="preserve" font-family="Helvetica-Light,Helvetica" font-size="36.0" fill="#000000" transform="matrix(1.00, 0.00, -0.00, -1.00, 419.4, 57.0)">n</text><text xml:space="preserve" font-family="Helvetica-Light,Helvetica" font-size="36.0" fill="#000000" transform="matrix(1.00, 0.00, -0.00, -1.00, 439.4, 57.0)"> </text><text xml:space="preserve" font-family="Helvetica-Light,Helvetica" font-size="36.0" fill="#000000" transform="matrix(1.00, 0.00, -0.00, -1.00, 449.4, 57.0)">i</text><text xml:space="preserve" font-family="Helvetica-Light,Helvetica" font-size="36.0" fill="#000000" transform="matrix(1.00, 0.00, -0.00, -1.00, 457.4, 57.0)">m</text><text xml:space="preserve" font-family="Helvetica-Light,Helvetica" font-size="36.0" fill="#000000" transform="matrix(1.00, 0.00, -0.00, -1.00, 487.4, 57.0)">p</text><text xml:space="preserve" font-family="Helvetica-Light,Helvetica" font-size="36.0" fill="#000000" transform="matrix(1.00, 0.00, -0.00, -1.00, 509.4, 57.0)">o</text><text xml:space="preserve" font-family="Helvetica-Light,Helvetica" font-size="36.0" fill="#000000" transform="matrix(1.00, 0.00, -0.00, -1.00, 529.4, 57.0)">r</text><text xml:space="preserve" font-family="Helvetica-Light,Helvetica" font-size="36.0" fill="#000000" transform="matrix(1.00, 0.00, -0.00, -1.00, 542.1, 57.0)">t</text><text xml:space="preserve" font-family="Helvetica-Light,Helvetica" font-size="36.0" fill="#000000" transform="matrix(1.00, 0.00, -0.00, -1.00, 552.1, 57.0)">a</text><text xml:space="preserve" font-family="Helvetica-Light,Helvetica" font-size="36.0" fill="#000000" transform="matrix(1.00, 0.00, -0.00, -1.00, 572.1, 57.0)">n</text><text xml:space="preserve" font-family="Helvetica-Light,Helvetica" font-size="36.0" fill="#000000" transform="matrix(1.00, 0.00, -0.00, -1.00, 592.1, 57.0)">t</text><text xml:space="preserve" font-family="Helvetica-Light,Helvetica" font-size="36.0" fill="#000000" transform="matrix(1.00, 0.00, -0.00, -1.00, 602.1, 57.0)"> </text><text xml:space="preserve" font-family="Helvetica-Light,Helvetica" font-size="36.0" fill="#000000" transform="matrix(1.00, 0.00, -0.00, -1.00, 612.1, 57.0)">p</text><text xml:space="preserve" font-family="Helvetica-Light,Helvetica" font-size="36.0" fill="#000000" transform="matrix(1.00, 0.00, -0.00, -1.00, 634.1, 57.0)">a</text><text xml:space="preserve" font-family="Helvetica-Light,Helvetica" font-size="36.0" fill="#000000" transform="matrix(1.00, 0.00, -0.00, -1.00, 654.1, 57.0)">r</text><text xml:space="preserve" font-family="Helvetica-Light,Helvetica" font-size="36.0" fill="#000000" transform="matrix(1.00, 0.00, -0.00, -1.00, 666.8, 57.0)">t</text><text xml:space="preserve" font-family="Helvetica-Light,Helvetica" font-size="36.0" fill="#000000" transform="matrix(1.00, 0.00, -0.00, -1.00, 676.8, 57.0)"> </text><text xml:space="preserve" font-family="Helvetica-Light,Helvetica" font-size="36.0" fill="#000000" transform="matrix(1.00, 0.00, -0.00, -1.00, 686.8, 57.0)">o</text><text xml:space="preserve" font-family="Helvetica-Light,Helvetica" font-size="36.0" fill="#000000" transform="matrix(1.00, 0.00, -0.00, -1.00, 706.8, 57.0)">f</text><text xml:space="preserve" font-family="Helvetica-Light,Helvetica" font-size="36.0" fill="#000000" transform="matrix(1.00, 0.00, -0.00, -1.00, 716.8, 57.0)"> </text><text xml:space="preserve" font-family="Helvetica-Light,Helvetica" font-size="36.0" fill="#000000" transform="matrix(1.00, 0.00, -0.00, -1.00, 726.8, 57.0)">t</text><text xml:space="preserve" font-family="Helvetica-Light,Helvetica" font-size="36.0" fill="#000000" transform="matrix(1.00, 0.00, -0.00, -1.00, 736.8, 57.0)">h</text><text xml:space="preserve" font-family="Helvetica-Light,Helvetica" font-size="36.0" fill="#000000" transform="matrix(1.00, 0.00, -0.00, -1.00, 756.8, 57.0)">e</text><text xml:space="preserve" font-family="Helvetica-Light,Helvetica" font-size="36.0" fill="#000000" transform="matrix(1.00, 0.00, -0.00, -1.00, 776.9, 57.0)"> </text><text xml:space="preserve" font-family="Helvetica-Light,Helvetica" font-size="36.0" fill="#000000" transform="matrix(1.00, 0.00, -0.00, -1.00, 786.9, 57.0)">s</text><text xml:space="preserve" font-family="Helvetica-Light,Helvetica" font-size="36.0" fill="#000000" transform="matrix(1.00, 0.00, -0.00, -1.00, 804.9, 57.0)">t</text><text xml:space="preserve" font-family="Helvetica-Light,Helvetica" font-size="36.0" fill="#000000" transform="matrix(1.00, 0.00, -0.00, -1.00, 814.9, 57.0)">a</text><text xml:space="preserve" font-family="Helvetica-Light,Helvetica" font-size="36.0" fill="#000000" transform="matrix(1.00, 0.00, -0.00, -1.00, 834.9, 57.0)">c</text><text xml:space="preserve" font-family="Helvetica-Light,Helvetica" font-size="36.0" fill="#000000" transform="matrix(1.00, 0.00, -0.00, -1.00, 854.9, 57.0)">k</text><text xml:space="preserve" font-family="Helvetica-Light,Helvetica" font-size="36.0" fill="#000000" transform="matrix(1.00, 0.00, -0.00, -1.00, 872.9, 57.0)">!</text></g></svg>